# xmcd
#
# Track frame offsets:
#	150
#	29486
#	63170
#	108278
#	148989
#	174783
#	202781
#	225798
#
# Disc length: 3376 seconds
#
# Revision: 0
# Processed by: cddbd v1.5.2PL0 Copyright (c) Steve Scherf et al.
# Submitted via: audiograbber 1.83.01
#
DISCID=5b0d2e08
DTITLE=Julian Sas - Wandering Between Worlds CD1
DYEAR=2009
DGENRE=Blues
TTITLE0=Resurrection
TTITLE1=Funky News
TTITLE2=Ain´t no change
TTITLE3=Sailin´into the unknown
TTITLE4=Tupentine moan
TTITLE5=Burnin´Soul
TTITLE6=The way it goes
TTITLE7=Can´t settle down
EXTD=
EXTT0=
EXTT1=
EXTT2=
EXTT3=
EXTT4=
EXTT5=
EXTT6=
EXTT7=
PLAYORDER=
